<svg xmlns="http://www.w3.org/2000/svg" width="500" viewBox="0 0 375 375" height="500" version="1.0"><defs><clipPath id="a"><path d="M54 84h267v240.8633H54Zm0 0"/></clipPath><clipPath id="b"><path d="M186 84h135v240.8633H186Zm0 0"/></clipPath><clipPath id="c"><path d="M66 50.3633h242V218H66Zm0 0"/></clipPath><clipPath id="d"><path d="M186 50.3633h122V218H186Zm0 0"/></clipPath></defs><g clip-path="url(#a)"><path fill="#ff3030" d="M320.4258 204.793c0 32.25-13.9336 62.5156-39.2383 85.2226-25.043 22.4766-58.2695 34.8477-93.5742 34.8477-.2383 0-.4766 0-.7149-.004-35.0312-.164-67.9843-12.5195-92.8593-34.8437-25.3047-22.707-39.2383-52.9726-39.2383-85.2226 0-16.9883 3.9726-33.7188 11.5703-49.0703 2.0586-4.172 4.3945-8.2461 6.9883-12.1954 11.582-17.6406 28.086-32.4062 47.7265-42.6914 19.918-10.4414 42.6641-16.0117 65.8125-16.121.2383-.004.4766-.004.7149-.004 23.3984 0 46.4023 5.5743 66.5312 16.125 19.6368 10.2852 36.1407 25.0508 47.7305 42.6954 1.8555 2.8242 3.5781 5.7109 5.164 8.6562 8.7813 16.2969 13.3868 34.2969 13.3868 52.6055Zm0 0"/></g><g clip-path="url(#b)"><path fill="#ff3030" d="M320.4258 204.793c0 32.25-13.9336 62.5156-39.2383 85.2226-25.043 22.4766-58.2695 34.8477-93.5742 34.8477-.2383 0-.4766 0-.7149-.004V84.7149c.2383-.0039.4766-.0039.7149-.0039 23.3984 0 46.4023 5.5704 66.5312 16.125 19.6368 10.2852 36.1407 25.0508 47.7305 42.6954 1.8555 2.8242 3.5781 5.7109 5.164 8.6562 8.7813 16.2969 13.3868 34.2969 13.3868 52.6055Zm0 0"/></g><g clip-path="url(#c)"><path fill="#059450" d="m307.039 152.1875-6.8007 5.621c-11.7695 2.1134-48.9922 6.8048-80.25-11.3593 0 0 4.6328 56.9219-32.375 70.6758a12.3204 12.3204 0 0 1-.7149-.2813c-36.2304-14.2109-31.668-70.3945-31.668-70.3945-31.25 18.164-68.4726 13.4727-80.2421 11.3594l-8.6172-2.086c2.0586-4.1718 4.3945-8.246 6.9883-12.1953 11.582-17.6406 28.086-32.4062 47.7265-42.6914 17.6407-9.25 37.4922-14.6718 57.8829-15.871V50.3632h17.289v34.6015c20.3906 1.1993 40.2422 6.6211 57.8867 15.8711 19.6368 10.2852 36.1407 25.0508 47.7305 42.6954 1.8555 2.8242 3.5781 5.7109 5.164 8.6562Zm0 0"/></g><g clip-path="url(#d)"><path fill="#059450" d="m307.039 152.1875-6.8007 5.621c-11.7695 2.1134-48.9922 6.8048-80.25-11.3593 0 0 4.6328 56.9219-32.375 70.6758a12.3204 12.3204 0 0 1-.7149-.2813V50.3633h9.3594v34.6015c20.3906 1.1993 40.2422 6.6211 57.8867 15.8711 19.6368 10.2852 36.1407 25.0508 47.7305 42.6954 1.8555 2.8242 3.5781 5.7109 5.164 8.6562Zm0 0"/></g></svg>