<svg xmlns="http://www.w3.org/2000/svg" xmlns:xlink="http://www.w3.org/1999/xlink" width="500" zoomAndPan="magnify" viewBox="0 0 375 374.999991" height="500" preserveAspectRatio="xMidYMid meet" version="1.0"><defs><clipPath id="63206a0d45"><path d="M 27.160156 27.160156 L 348.160156 27.160156 L 348.160156 348.160156 L 27.160156 348.160156 Z M 27.160156 27.160156 " clip-rule="nonzero"/></clipPath></defs><path fill="#000000" d="M 225.847656 74.101562 C 215.886719 74.101562 206.121094 75.445312 196.683594 78.097656 L 196.683594 47.585938 L 178.632812 47.585938 L 178.632812 78.097656 C 169.195312 75.441406 159.433594 74.101562 149.472656 74.101562 C 90.074219 74.101562 41.75 122.425781 41.75 181.824219 C 41.75 220.796875 56.929688 257.4375 84.488281 284.996094 C 112.046875 312.558594 148.6875 327.734375 187.660156 327.734375 C 226.632812 327.734375 263.273438 312.554688 290.832031 284.996094 C 318.390625 257.4375 333.570312 220.796875 333.570312 181.824219 C 333.570312 122.425781 285.246094 74.101562 225.847656 74.101562 Z M 187.660156 309.683594 C 117.160156 309.683594 59.800781 252.328125 59.800781 181.824219 C 59.800781 132.378906 100.027344 92.152344 149.472656 92.152344 C 155.828125 92.152344 162.078125 92.8125 168.1875 94.109375 L 140.855469 114.605469 L 151.683594 129.046875 L 178.632812 108.839844 L 178.632812 144.941406 L 196.683594 144.941406 L 196.683594 108.839844 L 223.636719 129.046875 L 234.464844 114.605469 L 207.132812 94.109375 C 213.238281 92.8125 219.492188 92.152344 225.847656 92.152344 C 275.292969 92.152344 315.519531 132.378906 315.519531 181.824219 C 315.519531 252.324219 258.160156 309.683594 187.660156 309.683594 Z M 187.660156 309.683594 " fill-opacity="1" fill-rule="nonzero"/><g clip-path="url(#63206a0d45)"><path stroke-linecap="butt" transform="matrix(0.601687, 0, 0, 0.601687, 41.750817, 41.750812)" fill="none" stroke-linejoin="miter" d="M 305.967851 53.766754 C 289.412832 53.766754 273.182421 56.000058 257.497353 60.408238 L 257.497353 9.697943 L 227.497062 9.697943 L 227.497062 60.408238 C 211.811993 55.993566 195.588074 53.766754 179.033056 53.766754 C 80.313206 53.766754 -0.00135778 134.081318 -0.00135778 232.801167 C -0.00135778 297.57349 25.227192 358.469991 71.029411 404.272209 C 116.83163 450.08092 177.728131 475.302978 242.500453 475.302978 C 307.272776 475.302978 368.169277 450.074428 413.971495 404.272209 C 459.773714 358.469991 485.002264 297.57349 485.002264 232.801167 C 485.002264 134.081318 404.6877 53.766754 305.967851 53.766754 Z M 242.500453 445.302687 C 125.329873 445.302687 29.998933 349.97824 29.998933 232.801167 C 29.998933 150.623352 96.855241 83.767045 179.033056 83.767045 C 189.595807 83.767045 199.98327 84.864221 210.137014 87.019619 L 164.711341 121.084005 L 182.707621 145.085536 L 227.497062 111.501571 L 227.497062 171.502153 L 257.497353 171.502153 L 257.497353 111.501571 L 302.293286 145.085536 L 320.289565 121.084005 L 274.863892 87.019619 C 285.011145 84.864221 295.4051 83.767045 305.967851 83.767045 C 388.145666 83.767045 455.001973 150.623352 455.001973 232.801167 C 455.001973 349.971748 359.671034 445.302687 242.500453 445.302687 Z M 242.500453 445.302687 " stroke="#000000" stroke-width="26.190001" stroke-opacity="1" stroke-miterlimit="4"/></g></svg>