<svg xmlns="http://www.w3.org/2000/svg" width="500" viewBox="0 0 375 375" height="500" version="1.0"><defs><clipPath id="a"><path d="M21 155h79v71.121H21Zm0 0"/></clipPath><clipPath id="b"><path d="M60 155h40v71.121H60Zm0 0"/></clipPath><clipPath id="c"><path d="M24 145.121h72V195H24Zm0 0"/></clipPath><clipPath id="d"><path d="M60 145.121h36V195H60Zm0 0"/></clipPath></defs><g clip-path="url(#a)"><path fill="#ff3030" d="M99.8281 190.6914c0 9.5156-4.1133 18.4453-11.5781 25.1484-7.3906 6.629-17.1953 10.2813-27.6133 10.2813h-.211c-10.3359-.0508-20.0585-3.6953-27.3984-10.2813-7.4687-6.703-11.582-15.6328-11.582-25.1484 0-5.0156 1.1719-9.9492 3.418-14.4805a33.3304 33.3304 0 0 1 2.0586-3.5976c3.418-5.207 8.289-9.5625 14.086-12.5977 5.875-3.082 12.5859-4.7265 19.4179-4.7578h.211c6.9062 0 13.6952 1.6445 19.6327 4.7578 5.793 3.0352 10.664 7.3906 14.086 12.5977a35.5014 35.5014 0 0 1 1.5234 2.5547c2.5898 4.8086 3.9492 10.121 3.9492 15.5234Zm0 0"/></g><g clip-path="url(#b)"><path fill="#ff3030" d="M99.8281 190.6914c0 9.5156-4.1133 18.4453-11.5781 25.1484-7.3906 6.629-17.1953 10.2813-27.6133 10.2813h-.211v-70.8633h.211c6.9063 0 13.6953 1.6445 19.6328 4.7578 5.793 3.0352 10.664 7.3906 14.086 12.5977a34.6675 34.6675 0 0 1 1.5234 2.5547c2.5898 4.8086 3.9492 10.121 3.9492 15.5234Zm0 0"/></g><g clip-path="url(#c)"><path fill="#059450" d="m95.879 175.168-2.008 1.6562c-3.4726.625-14.457 2.0117-23.6796-3.3515 0 0 1.3672 16.7968-9.5547 20.8554a2.346 2.346 0 0 1-.211-.082c-10.6913-4.1914-9.3437-20.7734-9.3437-20.7734-9.2226 5.3632-20.207 3.9765-23.6797 3.3554l-2.539-.6172a33.3304 33.3304 0 0 1 2.0586-3.5976c3.418-5.207 8.289-9.5625 14.086-12.5977 5.203-2.7304 11.0624-4.332 17.078-4.6836v-10.211h5.1016v10.211c6.0156.3516 11.875 1.9532 17.082 4.6836 5.793 3.0352 10.664 7.3906 14.086 12.5977a34.6675 34.6675 0 0 1 1.5234 2.5547Zm0 0"/></g><g clip-path="url(#d)"><path fill="#059450" d="m95.879 175.168-2.008 1.6562c-3.4726.625-14.457 2.0117-23.6796-3.3515 0 0 1.3672 16.7968-9.5547 20.8554a2.346 2.346 0 0 1-.211-.082v-49.125h2.7618v10.211c6.0156.3515 11.875 1.953 17.082 4.6835 5.793 3.0352 10.664 7.3906 14.086 12.5977a34.6675 34.6675 0 0 1 1.5234 2.5547Zm0 0"/></g><path d="M101.5818 148.0625c1.2188-1.0938 2.6328-1.6406 4.25-1.6406 1.6133 0 3.0352.5468 4.2656 1.6406 1.2383 1.0937 1.8594 2.3281 1.8594 3.7031v.2813c0 .9609-.371 3.1367-1.1094 6.5312-.7304 3.3867-1.4765 6.5547-2.2343 9.5l-1.0782 4.3438h-4.7656c-2-11.3946-3-18.1875-3-20.375v-.2813c0-1.375.6016-2.6094 1.8125-3.7031ZM151.4047 174.2344c3.414 3.7304 5.125 8.3046 5.125 13.7187 0 5.4063-1.711 9.9844-5.125 13.7344-3.418 3.75-7.7617 5.625-13.0312 5.625-4.8438 0-8.836-1.5156-11.9688-4.5469v22h-12.6094v-55.0469h12.4688v4.125h.1406c3.1328-3.4687 7.125-5.203 11.9688-5.203 5.2695 0 9.6132 1.8671 13.0312 5.5937Zm-10.7187 19.9062c1.6328-1.6133 2.453-3.6758 2.453-6.1875 0-2.5195-.7812-4.5703-2.3437-6.1562-1.5625-1.5938-3.6328-2.3907-6.203-2.3907-2.4688 0-4.5.8086-6.0938 2.422-1.586 1.6171-2.375 3.6562-2.375 6.125 0 2.5116.8164 4.5741 2.453 6.1874 1.6446 1.6172 3.6485 2.4219 6.0157 2.4219 2.4258 0 4.457-.8047 6.0938-2.4219Zm0 0"/><path d="M159.1861 201.9062c-4.0546-3.6015-6.078-8.2265-6.078-13.875 0-5.6562 2.1093-10.3007 6.328-13.9375 4.2266-3.6328 9.4532-5.453 15.672-5.453 6.125 0 11.285 1.828 15.4843 5.4843 4.207 3.6562 6.3125 8.289 6.3125 13.8906 0 5.6055-2.0586 10.2266-6.1719 13.8594-4.1054 3.625-9.3125 5.4375-15.625 5.4375-6.5547 0-11.8594-1.8008-15.9219-5.4063Zm9.7657-20.078c-1.6367 1.6171-2.4531 3.6835-2.4531 6.203 0 2.5118.7812 4.5625 2.3437 6.1563 1.5703 1.586 3.6406 2.375 6.2031 2.375 2.4688 0 4.4922-.8047 6.0781-2.4219 1.5938-1.6133 2.3907-3.6562 2.3907-6.125 0-2.5078-.8203-4.5703-2.4531-6.1875-1.6368-1.6133-3.6407-2.4219-6.0157-2.4219-2.4297 0-4.461.8086-6.0937 2.422Zm0 0"/><path d="M198.2449 169.7187v-13.6093h12.6093v13.6093h7.6875v9.6094h-7.6875v11.6094c0 3.375.9453 5.0625 2.8438 5.0625.4765 0 .9765-.0938 1.5-.2813.5195-.1953.9258-.3906 1.2187-.578l.4219-.2813 3.125 10.1875c-2.6992 1.5078-5.7813 2.2656-9.25 2.2656-2.375 0-4.418-.414-6.125-1.2344-1.711-.832-3.0078-1.9453-3.8906-3.3437-.875-1.4063-1.5078-2.879-1.8906-4.422-.375-1.539-.5625-3.1913-.5625-4.953V179.328h-5.2657v-9.6094Zm0 0"/><path d="M220.0354 201.7344c-3.418-3.7266-5.125-8.297-5.125-13.7032 0-5.414 1.707-10 5.125-13.75 3.414-3.7578 7.7578-5.6406 13.0312-5.6406 4.8438 0 8.832 1.5234 11.9688 4.5625v-3.4844h12.6094V206.25H245.176v-4.125h-.1406c-3.1367 3.461-7.125 5.1875-11.9688 5.1875-5.2734 0-9.6171-1.8594-13.0312-5.5781Zm10.7187-19.9063c-1.6367 1.6172-2.453 3.6836-2.453 6.2031 0 2.5118.7812 4.5625 2.3437 6.1563 1.5703 1.586 3.6406 2.375 6.203 2.375 2.4688 0 4.4923-.8047 6.0782-2.4219 1.5938-1.6133 2.3906-3.6562 2.3906-6.125 0-2.5078-.8203-4.5703-2.453-6.1875-1.6368-1.6133-3.6407-2.4219-6.0157-2.4219-2.4297 0-4.461.8086-6.0938 2.422Zm0 0"/><path d="m257.848 215.2187 10.3282-5.0468c1.8945 3.1328 5.1914 4.703 9.8906 4.703 2.1875 0 4.2188-.703 6.0938-2.1093 1.875-1.3984 2.8125-3.543 2.8125-6.4375v-2.7187c-2.2305 2.4687-6.2188 3.703-11.9688 3.703-5.2734 0-9.6172-1.8593-13.0312-5.578-3.418-3.7266-5.125-8.297-5.125-13.7032 0-5.414 1.707-10 5.125-13.75 3.414-3.7578 7.7578-5.6406 13.0312-5.6406 4.6953 0 8.6133 1.4492 11.75 4.3438h.2188v-3.2657h12.6094V207.25c0 5.9375-1.9766 10.5156-5.922 13.7344-3.9374 3.2265-9.1366 4.8437-15.5937 4.8437-10.4492 0-17.1875-3.539-20.2187-10.6094Zm14.8438-33.3906c-1.6367 1.6172-2.4531 3.6836-2.4531 6.2031 0 2.5118.7813 4.5625 2.3438 6.1563 1.5703 1.586 3.6406 2.375 6.203 2.375 2.4688 0 4.4923-.8047 6.0782-2.4219 1.5938-1.6133 2.3906-3.6562 2.3906-6.125 0-2.5078-.8203-4.5703-2.4531-6.1875-1.6367-1.6133-3.6406-2.4219-6.0156-2.4219-2.4297 0-4.461.8086-6.0938 2.422Zm0 0"/><path d="M338.3795 189.7344h-26.4844c0 2.5625.8282 4.4648 2.4844 5.703 1.664 1.2306 3.4688 1.8438 5.4063 1.8438 2.039 0 3.6562-.2695 4.8437-.8125 1.1875-.5507 2.539-1.6328 4.0625-3.25l9.125 4.5625c-3.8047 6.3555-10.121 9.5313-18.9531 9.5313-5.5117 0-10.2344-1.8828-14.1719-5.6563-3.9375-3.7695-5.9062-8.3125-5.9062-13.625 0-5.3203 1.9687-9.8828 5.9062-13.6875 3.9375-3.8007 8.6602-5.703 14.1719-5.703 5.789 0 10.5039 1.6796 14.1406 5.0312 3.6328 3.3437 5.4531 8.125 5.4531 14.3437 0 .8555-.0273 1.4297-.078 1.7188ZM312.239 182.75h13.8906c-.2812-1.8945-1.0312-3.3516-2.25-4.375-1.211-1.0195-2.7617-1.5313-4.6562-1.5313-2.0938 0-3.7618.547-5 1.6407-1.2305 1.0859-1.8907 2.5078-1.9844 4.2656Zm0 0"/><path d="M337.6522 206.25v-36.5313h12.6094v5.2657h.1406c.0937-.1875.2422-.422.4531-.7032.2188-.289.6797-.789 1.3906-1.5.7188-.7187 1.4766-1.3593 2.2813-1.9218.8125-.5704 1.8594-1.082 3.1406-1.5313 1.2813-.457 2.586-.6875 3.9219-.6875 1.375 0 2.7226.1953 4.0469.5781 1.332.375 2.3125.7578 2.9375 1.1407l.9843.5625-5.2656 10.6875c-1.5625-1.332-3.746-2-6.5469-2-1.5234 0-2.828.3359-3.9218 1-1.0938.668-1.8672 1.4765-2.3125 2.4218-.4493.9493-.7735 1.7578-.9688 2.422-.1875.6679-.2812 1.1874-.2812 1.5624V206.25Zm0 0"/></svg>